<?xml version="1.0" ?><svg id="Layer_1" style="enable-background:new 0 0 512 512;" version="1.1" viewBox="0 0 512 512" xml:space="preserve" xmlns="http://www.w3.org/2000/svg" xmlns:xlink="http://www.w3.org/1999/xlink"><g id="XMLID_97_"><path d="M169.4,203c12.1,0,23.1,1,33.1,3.2c9.9,2.1,18.4,5.6,25.6,10.5c7.1,4.8,12.6,11.3,16.5,19.3   s5.8,18,5.8,29.8c0,12.8-2.9,23.4-8.7,32c-5.8,8.5-14.4,15.5-25.9,20.9c15.6,4.5,27.2,12.4,34.8,23.6c7.7,11.3,11.5,24.8,11.5,40.7   c0,12.9-2.5,23.9-7.4,33.2c-5,9.4-11.7,17.1-20.1,23c-8.4,5.9-18,10.3-28.8,13.2c-10.7,2.8-21.8,4.3-33.1,4.3H49.9V203H169.4z    M162.2,305.4c9.9,0,18.1-2.3,24.6-7.1c6.4-4.7,9.5-12.4,9.5-23.1c0-5.9-1-10.8-3.1-14.6c-2.2-3.8-5-6.7-8.6-8.8   c-3.6-2.2-7.6-3.6-12.3-4.5c-4.6-0.9-9.4-1.3-14.4-1.3h-52.2v59.3h56.5V305.4z M165.3,413.4c5.5,0,10.7-0.5,15.7-1.6   s9.4-2.8,13.2-5.4c3.7-2.5,6.8-5.8,9.1-10.1c2.3-4.3,3.3-9.8,3.3-16.4c0-13.1-3.7-22.3-11-28c-7.3-5.6-17.1-8.3-29.1-8.3h-60.7   v69.8L165.3,413.4L165.3,413.4z" id="XMLID_102_" fill="#ffffff"/><path d="M341.8,412.5c7.6,7.4,18.5,11.1,32.6,11.1c10.2,0,19-2.6,26.3-7.7s11.8-10.6,13.5-16.3h44.4   c-7.1,22.1-18,37.9-32.7,47.4c-14.6,9.5-32.4,14.3-53.2,14.3c-14.5,0-27.5-2.3-39.2-7s-21.4-11.2-29.6-19.7   c-8-8.6-14.2-18.7-18.6-30.6c-4.4-11.8-6.6-24.9-6.6-39.1c0-13.7,2.3-26.6,6.8-38.4c4.6-11.9,10.9-22.2,19.2-30.8   c8.3-8.7,18.2-15.5,29.8-20.5c11.5-5,24.2-7.5,38.3-7.5c15.5,0,29.1,3,40.8,9.1c11.6,6,21.1,14.1,28.6,24.3   c7.5,10.2,12.8,21.8,16.1,34.8c3.3,13,4.5,26.6,3.5,40.9H329.3C329.3,391.4,334.2,405.2,341.8,412.5z M399.7,316.1   c-6-6.6-16.1-10.2-28.5-10.2c-8.1,0-14.7,1.4-20.1,4.1c-5.2,2.7-9.5,6.1-12.8,10.1c-3.3,4.1-5.5,8.4-6.8,12.9s-2.1,8.5-2.3,12.1   h82.1C410.2,332.3,405.8,322.8,399.7,316.1z" id="XMLID_99_" fill="#ffffff"/><rect height="25" id="XMLID_98_" width="102.8" x="319" y="220" fill="#ffffff"/></g></svg>