<?xml version="1.0" encoding="iso-8859-1"?>
<!-- Generator: Adobe Illustrator 18.1.1, SVG Export Plug-In . SVG Version: 6.00 Build 0)  -->
<svg version="1.1" id="Capa_1" xmlns="http://www.w3.org/2000/svg" xmlns:xlink="http://www.w3.org/1999/xlink" x="0px" y="0px"
	 viewBox="0 0 478.165 478.165" style="enable-background:new 0 0 478.165 478.165;" xml:space="preserve">
<g>
	<path id="Dribbble_3_" d="M239.082,0C106.989,0.02,0,106.989,0,239.102c0,132.073,106.989,239.062,239.082,239.062
		s239.082-106.989,239.082-239.062C478.165,106.989,371.175,0.02,239.082,0z M385.64,123.964
		c23.311,29.606,37.835,66.306,39.708,106.292c-27.036-5.658-52.638-8.467-76.168-8.467l0,0h-0.319
		c-19.127,0-37.018,1.813-54.092,4.702c-3.945-10.041-8.109-19.704-12.313-28.989C319.992,180.985,356.292,157.396,385.64,123.964z
		 M239.082,52.558c43.951,0,84.416,15.421,116.274,41.042c-24.347,29.208-56.603,50.466-91.549,65.389
		c-24.486-47.398-48.155-81.248-64.373-101.989C212.245,54.192,225.494,52.558,239.082,52.558z M156.699,71.984
		c12.871,15.361,38.891,48.972,66.545,101.51c-56.304,16.776-113.006,20.74-147.335,20.74c-0.976,0-1.893,0-2.849-0.04h-0.04
		c-5.798,0-10.719-0.139-14.903-0.359C71.486,140.341,108.145,95.972,156.699,71.984z M52.538,239.102
		c0-0.777,0.02-1.853,0.179-2.769c5.22,0.339,12.133,0.418,20.322,0.418h0.04c37.516-0.219,102.945-3.307,169.27-24.307
		c3.566,7.91,7.153,16.138,10.739,24.725c-44.33,14.863-79.176,38.353-105.037,61.783c-24.825,22.773-41.6,45.187-51.403,60.129
		C69.155,326.507,52.558,284.847,52.538,239.102z M239.082,425.766c-41.541,0-79.794-13.867-110.735-36.859
		c6.575-10.779,20.621-31.738,43.234-53.236c23.131-22.314,55.108-45.187,96.868-58.794c14.146,39.747,27.076,85.372,36.898,136.476
		C284.747,421.243,262.393,425.766,239.082,425.766z M344.637,392.613c-9.424-46.243-21.438-88.201-34.488-125.478
		c12.153-1.793,25.024-2.749,38.273-2.749h0.498l0,0h0.259c22.075,0,46.701,2.769,73.02,8.806
		C413.154,322.602,384.405,365.099,344.637,392.613z" fill="#ffffff"/>
</g>
<g>
</g>
<g>
</g>
<g>
</g>
<g>
</g>
<g>
</g>
<g>
</g>
<g>
</g>
<g>
</g>
<g>
</g>
<g>
</g>
<g>
</g>
<g>
</g>
<g>
</g>
<g>
</g>
<g>
</g>
</svg>
